<?xml version="1.0" encoding="iso-8859-1"?>
<!-- Generator: Adobe Illustrator 16.0.0, SVG Export Plug-In . SVG Version: 6.00 Build 0)  -->
<!DOCTYPE svg PUBLIC "-//W3C//DTD SVG 1.1//EN" "http://www.w3.org/Graphics/SVG/1.1/DTD/svg11.dtd">
<svg version="1.1" id="Capa_1" xmlns="http://www.w3.org/2000/svg" xmlns:xlink="http://www.w3.org/1999/xlink" x="0px" y="0px"
	 width="118.15px" height="118.15px" viewBox="0 0 118.15 118.15" style="enable-background:new 0 0 118.15 118.15;"
	 xml:space="preserve">
<g>
	<g>
		<path d="M101.706,35.324c4.037,0,7.31-3.271,7.31-7.308c0-3.881-3.033-7.023-6.854-7.262l5.812-9.684
			c2.077-3.462,0.954-7.952-2.508-10.027c-3.459-2.076-7.947-0.958-10.025,2.506L85.146,20.707H45.269
			c-20.261,0-36.134,15.516-36.134,35.323v7.308c0,18.017,12.146,33.104,28.324,36.848l-4.139,6.898
			c-2.078,3.461-0.955,7.951,2.506,10.026c1.177,0.704,2.473,1.04,3.752,1.04c2.482,0,4.904-1.268,6.273-3.549l8.102-13.504h47.752
			c4.037,0,7.309-3.271,7.309-7.309s-3.271-7.309-7.309-7.309H62.723l30.695-51.158h8.288V35.324z M45.681,86.482h-0.409
			c-11.667,0-21.521-10.601-21.521-23.145v-7.307c0-11.805,9.25-20.707,21.518-20.707h31.104L45.681,86.482z"/>
	</g>
</g>
<g>
</g>
<g>
</g>
<g>
</g>
<g>
</g>
<g>
</g>
<g>
</g>
<g>
</g>
<g>
</g>
<g>
</g>
<g>
</g>
<g>
</g>
<g>
</g>
<g>
</g>
<g>
</g>
<g>
</g>
</svg>
