<?xml version="1.0" encoding="iso-8859-1"?>
<!-- Generator: Adobe Illustrator 16.0.0, SVG Export Plug-In . SVG Version: 6.00 Build 0)  -->
<!DOCTYPE svg PUBLIC "-//W3C//DTD SVG 1.1//EN" "http://www.w3.org/Graphics/SVG/1.1/DTD/svg11.dtd">
<svg version="1.1" id="Capa_1" xmlns="http://www.w3.org/2000/svg" xmlns:xlink="http://www.w3.org/1999/xlink" x="0px" y="0px"
	 width="99.881px" height="99.881px" viewBox="0 0 99.881 99.881" style="enable-background:new 0 0 99.881 99.881;"
	 xml:space="preserve">
<g>
	<g>
		<path d="M36.134,24.362h56.437c4.037,0,7.31-3.271,7.31-7.309c0-4.036-3.271-7.308-7.31-7.308H36.134
			C15.873,9.745,0,25.261,0,45.068v7.31c0,20.819,16.209,37.758,36.134,37.758h56.437c4.037,0,7.31-3.271,7.31-7.308
			c0-4.036-3.271-7.309-7.31-7.309H36.134c-11.664,0-21.518-10.601-21.518-23.144v-7.309C14.617,33.263,23.868,24.362,36.134,24.362
			z"/>
	</g>
</g>
<g>
</g>
<g>
</g>
<g>
</g>
<g>
</g>
<g>
</g>
<g>
</g>
<g>
</g>
<g>
</g>
<g>
</g>
<g>
</g>
<g>
</g>
<g>
</g>
<g>
</g>
<g>
</g>
<g>
</g>
</svg>
